<?xml version="1.0" encoding="UTF-8"?>
<svg id="Calque_1" data-name="Calque 1" xmlns="http://www.w3.org/2000/svg" viewBox="0 0 850.39 850.39">
  <defs>
    <style>
      .cls-1 {
        fill: #2871b7;
      }

      .cls-1, .cls-2, .cls-3, .cls-4, .cls-5, .cls-6 {
        stroke-width: 0px;
      }

      .cls-2 {
        fill: #f9b513;
      }

      .cls-3 {
        fill: #e87804;
      }

      .cls-4 {
        fill: #000;
      }

      .cls-5 {
        fill: #8dc9e6;
      }

      .cls-6 {
        fill: #cf4816;
      }
    </style>
  </defs>
  <g>
    <g>
      <path class="cls-4" d="M105.52,239.55c-2.92-3.69-6.88-6.42-11.88-8.19-5-1.77-9.73-2.65-14.18-2.65-2.62,0-5.31.31-8.07.92-2.77.62-5.38,1.58-7.84,2.88-2.46,1.31-4.46,3.04-6,5.19-1.54,2.15-2.31,4.77-2.31,7.84,0,4.92,1.85,8.69,5.54,11.3,3.69,2.62,8.34,4.84,13.95,6.69,5.61,1.85,11.65,3.69,18.11,5.54,6.46,1.85,12.49,4.46,18.11,7.84,5.61,3.38,10.26,7.92,13.95,13.61,3.69,5.69,5.54,13.3,5.54,22.83s-1.69,16.99-5.07,23.76c-3.38,6.77-7.96,12.38-13.72,16.84-5.77,4.46-12.46,7.77-20.07,9.92-7.61,2.15-15.65,3.23-24.1,3.23-10.61,0-20.45-1.61-29.52-4.84-9.07-3.23-17.53-8.45-25.37-15.68l25.6-28.14c3.69,4.92,8.34,8.73,13.95,11.42,5.61,2.69,11.42,4.04,17.41,4.04,2.92,0,5.88-.35,8.88-1.04,3-.69,5.69-1.73,8.07-3.11,2.38-1.38,4.3-3.15,5.77-5.31,1.46-2.15,2.19-4.69,2.19-7.61,0-4.92-1.88-8.8-5.65-11.65-3.77-2.84-8.5-5.27-14.18-7.27-5.69-2-11.84-4-18.45-6-6.61-2-12.76-4.69-18.45-8.07-5.69-3.38-10.42-7.84-14.19-13.38-3.77-5.54-5.65-12.84-5.65-21.91s1.73-16.45,5.19-23.07c3.46-6.61,8.07-12.15,13.84-16.61,5.77-4.46,12.42-7.8,19.95-10.03,7.53-2.23,15.3-3.34,23.3-3.34,9.23,0,18.14,1.31,26.76,3.92,8.61,2.62,16.38,7,23.3,13.15l-24.68,26.99Z"/>
      <path class="cls-4" d="M148.42,281.3c0-13.07,2.19-24.91,6.57-35.52,4.38-10.61,10.49-19.64,18.34-27.1,7.84-7.46,17.14-13.18,27.91-17.18,10.76-4,22.52-6,35.29-6s24.53,2,35.29,6c10.76,4,20.07,9.73,27.91,17.18,7.84,7.46,13.95,16.49,18.34,27.1,4.38,10.61,6.57,22.45,6.57,35.52s-2.19,24.91-6.57,35.52c-4.38,10.61-10.5,19.65-18.34,27.1-7.84,7.46-17.15,13.19-27.91,17.18-10.76,4-22.53,6-35.29,6s-24.53-2-35.29-6c-10.76-4-20.07-9.72-27.91-17.18-7.84-7.46-13.95-16.49-18.34-27.1-4.38-10.61-6.57-22.45-6.57-35.52ZM185.79,281.3c0,7.69,1.19,14.73,3.57,21.1,2.38,6.38,5.8,11.92,10.26,16.61,4.46,4.69,9.8,8.34,16.03,10.96,6.23,2.62,13.18,3.92,20.87,3.92s14.65-1.3,20.87-3.92c6.23-2.61,11.57-6.26,16.03-10.96,4.46-4.69,7.88-10.22,10.26-16.61,2.38-6.38,3.58-13.41,3.58-21.1s-1.19-14.53-3.58-20.99c-2.39-6.46-5.81-12.03-10.26-16.72-4.46-4.69-9.8-8.34-16.03-10.96-6.23-2.61-13.19-3.92-20.87-3.92s-14.65,1.31-20.87,3.92c-6.23,2.62-11.57,6.27-16.03,10.96-4.46,4.69-7.88,10.26-10.26,16.72-2.39,6.46-3.57,13.46-3.57,20.99Z"/>
      <path class="cls-4" d="M350.47,199.65h35.98v130.09h66.66v33.21h-102.64v-163.3Z"/>
      <path class="cls-4" d="M472.48,199.65h35.98v163.3h-35.98v-163.3Z"/>
    </g>
    <path class="cls-6" d="M580.38,266.25h0c-7.05.94-14.21.75-21.21-.56l-5.87-1.1c-1.9-.12-3.36-1.77-3.24-3.67h0s3.41-21.06,3.41-21.06c1.99-12.33,2.76-24.83,2.29-37.32l-.8-21.32h0c.12-1.9,1.77-3.36,3.67-3.24h0c7.39-.55,14.81-.25,22.13.89l4.95.77c1.9.12,3.36,1.77,3.24,3.67l.44,23.16c.21,11.24-.48,22.47-2.06,33.6l-3.27,22.93c-.12,1.9-1.77,3.36-3.67,3.24Z"/>
  </g>
  <g>
    <g>
      <path class="cls-4" d="M545.86,434.75h53.97c13.07,0,25.49,1.46,37.25,4.38,11.76,2.92,22.03,7.65,30.79,14.18,8.76,6.54,15.72,15.03,20.87,25.49,5.15,10.46,7.73,23.15,7.73,38.06,0,13.23-2.5,24.87-7.5,34.94-5,10.07-11.73,18.53-20.18,25.37-8.46,6.84-18.22,12.03-29.29,15.57-11.07,3.54-22.68,5.31-34.83,5.31h-58.82v-163.3ZM581.84,564.84h18.68c8.3,0,16.03-.84,23.18-2.54,7.15-1.69,13.34-4.5,18.57-8.42,5.23-3.92,9.34-9.07,12.34-15.45,3-6.38,4.5-14.18,4.5-23.41,0-7.99-1.5-14.95-4.5-20.87-3-5.92-7.04-10.8-12.11-14.65-5.07-3.84-11.04-6.72-17.88-8.65-6.84-1.92-14.03-2.88-21.57-2.88h-21.22v96.87Z"/>
      <path class="cls-5" d="M577.97,666.69h0c-1.37-6.98-1.62-14.14-.74-21.2l.74-5.93c0-1.9,1.56-3.46,3.46-3.46h0s21.23,2.11,21.23,2.11c12.43,1.23,24.96,1.23,37.39,0l21.23-2.11h0c1.9,0,3.46,1.56,3.46,3.46h0c1,7.34,1.16,14.77.47,22.14l-.47,4.99c0,1.9-1.56,3.46-3.46,3.46l-23.09,1.85c-11.2.9-22.46.9-33.66,0l-23.09-1.85c-1.9,0-3.46-1.56-3.46-3.46Z"/>
    </g>
    <g>
      <path class="cls-4" d="M511.92,535.08c0,9.69-1.46,18.61-4.38,26.76-2.92,8.15-7.26,15.22-13.03,21.22-5.77,6-12.96,10.69-21.57,14.07-8.61,3.38-18.53,5.07-29.75,5.07s-21.38-1.69-29.99-5.07c-8.61-3.38-15.8-8.07-21.57-14.07-5.77-6-10.11-13.07-13.03-21.22-2.92-8.15-4.38-17.07-4.38-26.76v-100.33h35.98v98.95c0,5.07.81,9.77,2.42,14.07,1.61,4.31,3.88,8.04,6.8,11.19,2.92,3.15,6.42,5.62,10.5,7.38,4.07,1.77,8.49,2.65,13.26,2.65s9.15-.88,13.15-2.65c4-1.77,7.46-4.23,10.38-7.38,2.92-3.15,5.19-6.88,6.8-11.19,1.61-4.3,2.42-9,2.42-14.07v-98.95h35.98v100.33Z"/>
      <path class="cls-2" d="M399.87,666.69h0c-1.37-6.98-1.62-14.14-.74-21.2l.74-5.93c0-1.9,1.56-3.46,3.46-3.46h0s21.23,2.11,21.23,2.11c12.43,1.23,24.96,1.23,37.39,0l21.23-2.11h0c1.9,0,3.46,1.56,3.46,3.46h0c1,7.34,1.16,14.77.47,22.14l-.47,4.99c0,1.9-1.56,3.46-3.46,3.46l-23.09,1.85c-11.2.9-22.46.9-33.66,0l-23.09-1.85c-1.9,0-3.46-1.56-3.46-3.46Z"/>
    </g>
    <g>
      <path class="cls-4" d="M254.86,434.75h29.75l71.04,163.3h-40.6l-14.07-34.6h-63.43l-13.61,34.6h-39.67l70.58-163.3ZM268.7,482.26l-19.84,50.74h39.9l-20.07-50.74Z"/>
      <path class="cls-3" d="M226.77,666.69h0c-1.37-6.98-1.62-14.14-.74-21.2l.74-5.93c0-1.9,1.56-3.46,3.46-3.46h0s21.23,2.11,21.23,2.11c12.43,1.23,24.96,1.23,37.39,0l21.23-2.11h0c1.9,0,3.46,1.56,3.46,3.46h0c1,7.34,1.16,14.77.47,22.14l-.47,4.99c0,1.9-1.56,3.46-3.46,3.46l-23.09,1.85c-11.2.9-22.46.9-33.66,0l-23.09-1.85c-1.9,0-3.46-1.56-3.46-3.46Z"/>
    </g>
    <g>
      <path class="cls-4" d="M722.73,434.75h110.94v33.21h-74.96v30.45h70.81v33.21h-70.81v33.21h79.11v33.21h-115.1v-163.3Z"/>
      <path class="cls-1" d="M737.08,666.57h0c-1.37-6.98-1.62-14.14-.74-21.2l.74-5.93c0-1.9,1.56-3.46,3.46-3.46h0s21.23,2.11,21.23,2.11c12.43,1.23,24.96,1.23,37.39,0l21.23-2.11h0c1.9,0,3.46,1.56,3.46,3.46h0c1,7.34,1.16,14.77.47,22.14l-.47,4.99c0,1.9-1.56,3.46-3.46,3.46l-23.09,1.85c-11.2.9-22.46.9-33.66,0l-23.09-1.85c-1.9,0-3.46-1.56-3.46-3.46Z"/>
    </g>
  </g>
</svg>