<?xml version="1.0" encoding="UTF-8"?>
<svg id="Calque_1" data-name="Calque 1" xmlns="http://www.w3.org/2000/svg" viewBox="0 0 760 657.25">
  <defs>
    <style>
      .cls-1 {
        fill: #fab613;
        stroke-width: 0px;
      }
    </style>
  </defs>
  <path class="cls-1" d="M319.96,360.27c2.26,2.16,4.61,4.06,7.11,5.78,9.79,6.77,20.62,10.72,32.46,11.93,13.04,1.33,25.55-.58,37.11-6.84,15.99-8.66,27.29-21.49,33.09-38.91.94-2.83,2-5.58,4.27-7.65,3.53-3.21,7.68-4.07,11.99-2.25,4.16,1.76,6.62,5.14,7.03,9.8.27,3-.68,5.77-1.57,8.54-3.76,11.73-10.03,21.98-18.38,30.97-11.27,12.14-24.73,20.85-40.59,25.74-7.74,2.39-15.67,3.69-23.79,3.85-21.95.45-41.7-5.82-59.1-19.28-4.95-3.83-9.38-8.2-13.36-13.03-.52-.63-.94-.84-1.79-.57-7.81,2.55-15.63,5.06-23.46,7.56-4.85,1.55-9.58-.84-11.18-5.68-.59-1.78-1.17-3.56-.83-5.5.61-3.51,2.55-5.91,5.93-7.02,6.18-2.03,12.37-4,18.58-5.95.96-.3,1.29-.53.74-1.58-1.43-2.77-2.6-5.66-3.58-8.62-.29-.88-.67-.97-1.47-.71-5.04,1.65-10.16,3.09-15.13,4.92-6.1,2.24-11.22-1.14-12.56-6.48-.83-3.33-.6-6.23,1.58-8.89,1.09-1.34,2.54-2.14,4.18-2.66,5.93-1.89,11.84-3.83,17.78-5.68.96-.3,1.14-.73,1.04-1.61-.44-3.98-.57-7.97-.39-11.97,1.02-22.21,8.81-41.7,23.58-58.33,11.04-12.43,24.83-20.53,40.64-25.32,10.54-3.19,21.33-4.39,32.3-3.8,10.47.57,20.48,3.08,29.99,7.54.72.34,1.4.77,2.07,1.21,3.65,2.38,4.99,5.77,4.25,10.02-.67,3.9-2.19,7.36-5.35,9.88-2.59,2.07-5.48,2.44-8.55,1.17-.48-.2-.97-.39-1.41-.66-4.76-2.95-10.07-4.14-15.51-4.92-11.62-1.66-23.08-.86-34.12,3.13-22.97,8.3-37.56,24.35-43.4,48.17-1.34,5.45-1.7,11.04-1.55,16.66.03,1.03.25,1.2,1.23.88,9.37-3.04,18.75-6.04,28.14-9.05,11.13-3.56,22.25-7.13,33.39-10.68,4.94-1.57,9.57.88,11.2,5.82.76,2.28,1.25,4.54.41,6.91-1.01,2.84-2.97,4.66-5.82,5.57-19.48,6.23-38.97,12.48-58.45,18.72-1.75.56-3.49,1.14-5.25,1.67-.73.22-.92.51-.62,1.28,1.18,3.06,2.52,6.04,4.06,8.93.36.68.7.77,1.38.54,8.12-2.63,16.25-5.24,24.37-7.85,12.15-3.89,24.31-7.79,36.47-11.66,5.21-1.66,9.65.73,11.44,5.91,1.23,3.55,1.15,6.82-1.39,9.78-1.13,1.31-2.59,2.09-4.22,2.61-12.8,4.09-25.6,8.2-38.4,12.29-5.28,1.69-10.56,3.37-15.84,5.06-.22.07-.42.18-.73.32Z"/>
</svg>