<?xml version="1.0" encoding="UTF-8"?>
<svg id="Calque_1" data-name="Calque 1" xmlns="http://www.w3.org/2000/svg" viewBox="0 0 683 554.5">
  <defs>
    <style>
      .cls-1 {
        fill: #f6f3ed;
      }

      .cls-1, .cls-2 {
        stroke-width: 0px;
      }

      .cls-2 {
        fill: #2984ce;
      }
    </style>
  </defs>
  <path class="cls-1" d="M367.83,364c-.66.46-.8,1.1-.64,1.84.7-.45.74-1.12.64-1.84Z"/>
  <g>
    <g>
      <path class="cls-2" d="M363.15,216.74c-.1-8.89-6.44-14.82-15.8-14.76-8.55.06-15,6.74-14.85,15.4.15,8.51,6.82,14.92,15.48,14.89,8.8-.03,15.26-6.65,15.16-15.54Z"/>
      <path class="cls-2" d="M408.91,204.89s0,0,0,0c-4.16-3.29-6.94-3.52-11.27-.84-5.33,3.29-9.55,7.85-13.99,12.16-6.7,6.51-13.15,13.25-20.22,19.42-7.54,6.59-15.89,7.58-25.16,5.73-9.66-1.93-18.84-5.42-28.12-8.57-6.41-2.18-12.81-4.38-19.59-5.21-1.09-.13-2.21-.33-3.3-.23-2.98.28-5.76.95-6.93,4.24-1.08,3.03.23,5.38,2.21,7.41,2.62,2.68,5.86,4.57,9.19,6.24,6.54,3.28,13.15,6.42,19.68,9.72,2.46,1.24,4.84,2.66,7.13,4.19,8.05,5.37,9.22,9.83,4.73,18.36-4.26,8.1-10.77,14.5-16.8,21.26-5.3,5.94-11.04,11.5-15.7,17.99-1.97,2.75-3.62,5.64-4.65,8.89-.89,2.81-.11,5.96,2.12,7.92,2.29,2.02,5.01,2.2,7.86,1.3,3.48-1.11,6.25-3.45,9.29-5.32l36.06-29.87c5.35-3.89,11.28,1.02,11.45,7.56.19,7.79-2.74,15-4.71,22.38-1.24,4.62-2.65,9.21-2.82,14.03-.25,7.21,2.08,10.64,7.03,10.32,3.44-.23,6.57-2.11,8.63-4.85,3.15-4.21,5.22-9.01,6.96-13.99,5.32-15.21,8.37-30.94,11.1-46.74l2.6-16.37c.89-3.7,1.62-7.45,2.7-11.09,3.96-13.29,9.99-25.56,18.9-36.35,0,0,0,0,0,0,1.08-1.72,2.21-3.4,3.22-5.16,2.61-4.54,5.97-10.6,2.38-14.52Z"/>
    </g>
    <g>
      <path class="cls-2" d="M433.18,205.02c.1-9.65,6.99-16.08,17.15-16.02,9.28.06,16.28,7.32,16.12,16.72-.16,9.23-7.4,16.19-16.81,16.16-9.55-.03-16.56-7.22-16.46-16.86Z"/>
      <path class="cls-2" d="M383.51,192.16s0,0,0,0c4.51-3.57,7.53-3.82,12.23-.92,5.79,3.58,10.36,8.52,15.18,13.19,7.27,7.07,14.28,14.38,21.95,21.08,8.19,7.15,17.25,8.23,27.31,6.22,10.49-2.1,20.45-5.88,30.52-9.3,6.96-2.37,13.91-4.75,21.26-5.65,1.19-.14,2.4-.36,3.58-.25,3.24.3,6.25,1.03,7.52,4.6,1.17,3.29-.25,5.84-2.4,8.04-2.84,2.91-6.36,4.96-9.98,6.77-7.1,3.56-14.27,6.97-21.36,10.55-2.67,1.35-5.25,2.89-7.73,4.54-8.74,5.83-10.01,10.67-5.13,19.93,4.63,8.79,11.69,15.74,18.23,23.07,5.75,6.45,11.98,12.49,17.04,19.53,2.14,2.98,3.93,6.12,5.05,9.65.97,3.05.12,6.47-2.3,8.6-2.48,2.19-5.44,2.39-8.53,1.41-3.77-1.2-6.78-3.75-10.09-5.77l-39.14-32.43c-5.8-4.23-12.25,1.11-12.42,8.21-.21,8.46,2.97,16.28,5.12,24.29,1.34,5.02,2.88,9.99,3.06,15.23.27,7.83-2.26,11.55-7.63,11.2-3.74-.25-7.13-2.29-9.36-5.26-3.42-4.56-5.67-9.78-7.56-15.18-5.77-16.5-9.09-33.58-12.04-50.73l-2.83-17.76c-.97-4.02-1.75-8.08-2.93-12.04-4.3-14.43-10.84-27.74-20.52-39.46,0,0,0,0,0,0-1.17-1.86-2.4-3.69-3.5-5.6-2.83-4.93-6.48-11.51-2.58-15.76Z"/>
    </g>
    <g>
      <path class="cls-2" d="M394.48,314.89c.03-2.53,1.83-4.22,4.5-4.2,2.44.02,4.27,1.92,4.23,4.39-.04,2.42-1.94,4.25-4.41,4.24-2.51,0-4.35-1.89-4.32-4.42Z"/>
      <path class="cls-2" d="M381.45,311.52s0,0,0,0c1.18-.94,1.98-1,3.21-.24,1.52.94,2.72,2.23,3.98,3.46,1.91,1.85,3.75,3.77,5.76,5.53,2.15,1.88,4.53,2.16,7.17,1.63,2.75-.55,5.36-1.54,8.01-2.44,1.83-.62,3.65-1.25,5.58-1.48.31-.04.63-.09.94-.06.85.08,1.64.27,1.97,1.21.31.86-.07,1.53-.63,2.11-.74.76-1.67,1.3-2.62,1.78-1.86.93-3.75,1.83-5.6,2.77-.7.35-1.38.76-2.03,1.19-2.29,1.53-2.63,2.8-1.35,5.23,1.21,2.31,3.07,4.13,4.78,6.05,1.51,1.69,3.14,3.28,4.47,5.12.56.78,1.03,1.61,1.33,2.53.25.8.03,1.7-.6,2.26-.65.57-1.43.63-2.24.37-.99-.32-1.78-.98-2.65-1.51l-10.27-8.51c-1.52-1.11-3.21.29-3.26,2.15-.05,2.22.78,4.27,1.34,6.37.35,1.32.76,2.62.8,4,.07,2.05-.59,3.03-2,2.94-.98-.06-1.87-.6-2.46-1.38-.9-1.2-1.49-2.57-1.98-3.98-1.51-4.33-2.39-8.81-3.16-13.31l-.74-4.66c-.25-1.05-.46-2.12-.77-3.16-1.13-3.79-2.84-7.28-5.38-10.35,0,0,0,0,0,0-.31-.49-.63-.97-.92-1.47-.74-1.29-1.7-3.02-.68-4.13Z"/>
    </g>
  </g>
</svg>