<?xml version="1.0" encoding="UTF-8"?>
<svg id="Layer_1" data-name="Layer 1" xmlns="http://www.w3.org/2000/svg" viewBox="0 0 1080 1080">
  <defs>
    <style>
      .cls-1 {
        fill: #2871b7;
      }

      .cls-1, .cls-2, .cls-3, .cls-4, .cls-5, .cls-6, .cls-7 {
        stroke-width: 0px;
      }

      .cls-2 {
        fill: #f9b513;
      }

      .cls-3 {
        fill: #e87804;
      }

      .cls-4 {
        fill: #000;
      }

      .cls-5 {
        fill: #8dc9e6;
      }

      .cls-6 {
        fill: #cf4816;
      }

      .cls-7 {
        fill: #fff;
      }
    </style>
  </defs>
  <rect class="cls-7" width="1080" height="1080" rx="162.49" ry="162.49"/>
  <g>
    <g>
      <g>
        <path class="cls-4" d="M170.07,325.17c-3.38-4.27-7.97-7.43-13.75-9.48-5.78-2.04-11.26-3.07-16.41-3.07-3.03,0-6.14.36-9.34,1.07-3.2.71-6.23,1.83-9.07,3.34-2.85,1.51-5.16,3.52-6.94,6.01-1.78,2.49-2.67,5.52-2.67,9.07,0,5.7,2.14,10.06,6.41,13.08,4.27,3.03,9.65,5.61,16.15,7.74,6.49,2.14,13.48,4.27,20.95,6.41,7.47,2.14,14.46,5.16,20.95,9.08,6.49,3.92,11.88,9.17,16.15,15.75,4.27,6.58,6.41,15.39,6.41,26.42s-1.96,19.66-5.87,27.49c-3.92,7.83-9.21,14.33-15.88,19.48-6.67,5.16-14.41,8.99-23.22,11.48-8.81,2.49-18.11,3.74-27.89,3.74-12.28,0-23.67-1.87-34.17-5.61-10.5-3.74-20.29-9.78-29.36-18.15l29.63-32.56c4.27,5.7,9.65,10.1,16.15,13.21,6.49,3.12,13.21,4.67,20.15,4.67,3.38,0,6.81-.4,10.28-1.2,3.47-.8,6.58-2,9.34-3.6,2.76-1.6,4.98-3.64,6.67-6.14,1.69-2.49,2.54-5.43,2.54-8.81,0-5.69-2.18-10.18-6.54-13.48-4.36-3.29-9.83-6.09-16.41-8.41-6.59-2.31-13.7-4.63-21.35-6.94-7.65-2.31-14.77-5.43-21.35-9.34-6.59-3.91-12.06-9.08-16.42-15.48-4.36-6.41-6.54-14.86-6.54-25.36s2-19.04,6.01-26.69c4-7.65,9.34-14.05,16.01-19.22,6.67-5.16,14.37-9.03,23.09-11.61,8.72-2.58,17.7-3.87,26.96-3.87,10.68,0,20.99,1.51,30.96,4.54,9.96,3.03,18.95,8.1,26.96,15.21l-28.56,31.23Z"/>
        <path class="cls-4" d="M219.71,373.48c0-15.12,2.54-28.83,7.61-41.1,5.07-12.28,12.14-22.73,21.22-31.36,9.08-8.63,19.84-15.26,32.3-19.88,12.45-4.63,26.07-6.94,40.84-6.94s28.38,2.31,40.84,6.94c12.45,4.63,23.22,11.26,32.3,19.88,9.07,8.63,16.15,19.08,21.22,31.36,5.07,12.28,7.61,25.98,7.61,41.1s-2.54,28.83-7.61,41.1c-5.07,12.28-12.15,22.73-21.22,31.36-9.08,8.63-19.84,15.26-32.3,19.88-12.46,4.63-26.07,6.94-40.84,6.94s-28.38-2.31-40.84-6.94c-12.46-4.63-23.22-11.25-32.3-19.88-9.08-8.63-16.15-19.08-21.22-31.36-5.07-12.28-7.61-25.98-7.61-41.1ZM262.95,373.48c0,8.9,1.38,17.04,4.14,24.42,2.76,7.39,6.71,13.79,11.88,19.22,5.16,5.43,11.34,9.66,18.55,12.68,7.21,3.03,15.26,4.54,24.16,4.54s16.95-1.51,24.16-4.54c7.21-3.02,13.39-7.25,18.55-12.68,5.16-5.43,9.12-11.83,11.88-19.22,2.76-7.38,4.14-15.52,4.14-24.42s-1.38-16.82-4.14-24.29c-2.76-7.47-6.72-13.92-11.88-19.35-5.16-5.43-11.34-9.65-18.55-12.68-7.21-3.02-15.26-4.54-24.16-4.54s-16.95,1.51-24.16,4.54c-7.21,3.03-13.39,7.25-18.55,12.68-5.16,5.43-9.12,11.88-11.88,19.35-2.76,7.47-4.14,15.57-4.14,24.29Z"/>
        <path class="cls-4" d="M453.52,278.99h41.64v150.54h77.14v38.44h-118.78v-188.97Z"/>
        <path class="cls-4" d="M594.72,278.99h41.64v188.97h-41.64v-188.97Z"/>
      </g>
      <path class="cls-6" d="M719.58,356.06h0c-8.16,1.09-16.45.87-24.54-.65l-6.8-1.28c-2.2-.13-3.89-2.04-3.75-4.24h0s3.94-24.37,3.94-24.37c2.31-14.27,3.2-28.74,2.65-43.18l-.93-24.67h0c.13-2.2,2.04-3.89,4.24-3.75h0c8.55-.64,17.14-.29,25.61,1.03l5.73.89c2.2.13,3.89,2.04,3.75,4.24l.5,26.8c.24,13-.55,26.01-2.39,38.88l-3.78,26.54c-.13,2.2-2.04,3.89-4.24,3.75Z"/>
    </g>
    <g>
      <g>
        <path class="cls-4" d="M679.63,551.05h62.46c15.12,0,29.49,1.69,43.11,5.07,13.61,3.38,25.49,8.85,35.63,16.41,10.14,7.57,18.19,17.4,24.16,29.49,5.96,12.1,8.94,26.78,8.94,44.04,0,15.3-2.89,28.78-8.67,40.44-5.78,11.66-13.57,21.45-23.35,29.36-9.79,7.92-21.09,13.93-33.9,18.02-12.81,4.1-26.25,6.14-40.3,6.14h-68.06v-188.97ZM721.27,701.59h21.62c9.61,0,18.55-.98,26.82-2.94,8.27-1.96,15.44-5.2,21.49-9.74,6.05-4.54,10.81-10.5,14.28-17.88,3.47-7.38,5.2-16.41,5.2-27.09,0-9.25-1.74-17.3-5.2-24.16-3.47-6.85-8.14-12.5-14.01-16.95-5.87-4.45-12.77-7.78-20.69-10.01-7.92-2.22-16.24-3.34-24.96-3.34h-24.56v112.1Z"/>
        <path class="cls-5" d="M716.79,819.46h0c-1.59-8.08-1.88-16.36-.86-24.54l.86-6.86c0-2.2,1.8-4.01,4.01-4.01h0s24.57,2.44,24.57,2.44c14.39,1.43,28.88,1.43,43.26,0l24.57-2.44h0c2.2,0,4.01,1.8,4.01,4.01h0c1.16,8.49,1.34,17.09.54,25.62l-.54,5.78c0,2.2-1.8,4.01-4.01,4.01l-26.72,2.15c-12.96,1.04-25.99,1.04-38.96,0l-26.72-2.15c-2.2,0-4.01-1.8-4.01-4.01Z"/>
      </g>
      <g>
        <path class="cls-4" d="M640.36,667.16c0,11.21-1.69,21.53-5.07,30.96-3.38,9.43-8.41,17.62-15.08,24.56-6.67,6.94-14.99,12.37-24.96,16.28-9.97,3.91-21.45,5.87-34.43,5.87s-24.74-1.96-34.7-5.87c-9.97-3.91-18.28-9.34-24.96-16.28-6.67-6.94-11.7-15.12-15.08-24.56-3.38-9.43-5.07-19.75-5.07-30.96v-116.11h41.64v114.51c0,5.87.93,11.3,2.8,16.28,1.87,4.98,4.49,9.3,7.87,12.94,3.38,3.65,7.43,6.5,12.15,8.54,4.71,2.05,9.83,3.07,15.35,3.07s10.58-1.02,15.21-3.07c4.63-2.04,8.63-4.89,12.01-8.54,3.38-3.64,6.01-7.96,7.87-12.94,1.87-4.98,2.8-10.41,2.8-16.28v-114.51h41.64v116.11Z"/>
        <path class="cls-2" d="M510.69,819.46h0c-1.59-8.08-1.88-16.36-.86-24.54l.86-6.86c0-2.2,1.8-4.01,4.01-4.01h0s24.57,2.44,24.57,2.44c14.39,1.43,28.88,1.43,43.26,0l24.57-2.44h0c2.2,0,4.01,1.8,4.01,4.01h0c1.16,8.49,1.34,17.09.54,25.62l-.54,5.78c0,2.2-1.8,4.01-4.01,4.01l-26.72,2.15c-12.96,1.04-25.99,1.04-38.96,0l-26.72-2.15c-2.2,0-4.01-1.8-4.01-4.01Z"/>
      </g>
      <g>
        <path class="cls-4" d="M342.89,551.05h34.43l82.21,188.97h-46.98l-16.28-40.04h-73.4l-15.75,40.04h-45.91l81.68-188.97ZM358.9,606.04l-22.95,58.72h46.18l-23.22-58.72Z"/>
        <path class="cls-3" d="M310.37,819.46h0c-1.59-8.08-1.88-16.36-.86-24.54l.86-6.86c0-2.2,1.8-4.01,4.01-4.01h0s24.57,2.44,24.57,2.44c14.39,1.43,28.88,1.43,43.26,0l24.57-2.44h0c2.2,0,4.01,1.8,4.01,4.01h0c1.16,8.49,1.34,17.09.54,25.62l-.54,5.78c0,2.2-1.8,4.01-4.01,4.01l-26.72,2.15c-12.96,1.04-25.99,1.04-38.96,0l-26.72-2.15c-2.2,0-4.01-1.8-4.01-4.01Z"/>
      </g>
      <g>
        <path class="cls-4" d="M884.31,551.05h128.39v38.44h-86.75v35.23h81.94v38.44h-81.94v38.44h91.55v38.44h-133.19v-188.97Z"/>
        <path class="cls-1" d="M900.91,819.32h0c-1.59-8.08-1.88-16.36-.86-24.54l.86-6.86c0-2.2,1.8-4.01,4.01-4.01h0s24.57,2.44,24.57,2.44c14.39,1.43,28.88,1.43,43.26,0l24.57-2.44h0c2.2,0,4.01,1.8,4.01,4.01h0c1.16,8.49,1.34,17.09.54,25.62l-.54,5.78c0,2.2-1.8,4.01-4.01,4.01l-26.72,2.15c-12.96,1.04-25.99,1.04-38.96,0l-26.72-2.15c-2.2,0-4.01-1.8-4.01-4.01Z"/>
      </g>
    </g>
  </g>
</svg>