<?xml version="1.0" encoding="UTF-8"?>
<svg id="Calque_1" data-name="Calque 1" xmlns="http://www.w3.org/2000/svg" viewBox="0 0 602 577.5">
  <defs>
    <style>
      .cls-1 {
        fill: #8ecae6;
        stroke-width: 0px;
      }
    </style>
  </defs>
  <path class="cls-1" d="M321.42,221.63c7.1.31,14.05.33,20.95,1.07,6.33.68,12.45,2.1,18,5.4,2.68,1.59,5.04,3.59,7.42,5.57,6.53,5.42,13.25,10.61,19.97,15.79,1.86,1.44,3.58,3.06,5.56,4.34,2.67,1.72,5.55,2.62,8.75,2.7,8.19.22,16.1,1.8,23.62,5.14.9.4,1.79.85,2.66,1.32,5.68,3.08,8.36,8.03,8.9,14.32.33,3.82.22,7.67.65,11.49.41,3.56.65,7.15,1.01,10.72.2,1.93.06,3.84-.36,5.72-.92,4.17-3.68,6.47-7.76,7.26-1.51.29-3.06.4-4.62.41-1.02,0-1.38-.39-1.6-1.34-1.17-5.21-2.84-10.25-5.34-14.99-2.34-4.44-5.31-8.37-9.38-11.37-4.51-3.33-9.61-4.98-15.18-5.44-6.34-.52-12.4.4-17.97,3.47-10.63,5.86-16.9,14.78-18.41,26.94-.28,2.28-.32,4.57-.3,6.86.01,1.33-.01,1.35-1.3,1.46-3.46.28-6.92.54-10.37.82-7.1.58-14.19,1.17-21.29,1.75-5.06.41-10.12.81-15.19,1.21-3.46.27-6.92.54-10.37.8-1.31.1-1.6.3-1.8-1.5-.55-4.76-1.71-9.37-3.89-13.67-4.99-9.84-13.02-15.43-23.84-17.25-15.6-2.63-29.35,6.69-35.05,17.29-3.25,6.04-4.24,12.49-3.6,19.23.1,1.01-.04,1.41-1.11,1.58-2.59.41-5.18.59-7.76.18-4-.63-6.75-2.91-8.26-6.66-.91-2.26-1.32-4.65-1.48-7.06-.51-7.35-1.22-14.68-1.84-22.01-.25-2.96-.4-5.93.15-8.89.79-4.23,2.98-7.55,6.33-10.17,1.42-1.11,2.91-2.12,4.54-2.88,2.37-1.1,4.17-2.84,5.78-4.84,3.29-4.12,6.05-8.61,9.04-12.94,2.53-3.67,5.12-7.31,8.38-10.39,7.67-7.25,16.75-12.03,26.75-15.17,7.35-2.31,14.9-3.63,22.54-4.5,7.82-.89,15.66-1.47,23.53-1.72,1.24-.04,2.48,0,3.55,0ZM376.59,257.8c-1.61-1.36-3.06-2.58-4.5-3.81-4.42-3.78-8.75-7.68-13.43-11.14-4.26-3.14-8.74-5.86-13.96-7.12-3.8-.92-7.65-1.47-11.52-1.92-3.01-.35-6.04-.68-9.07-.6-4.39.12-8.78.4-13.17.62-1.27.06-1.29.11-1.16,1.47.19,2.09.4,4.19.56,6.28.53,6.72,1.05,13.44,1.58,20.16.11,1.39.17,1.47,1.57,1.36,2.34-.18,4.68-.44,7.02-.62,6.97-.55,13.94-1.07,20.91-1.63,9.07-.72,18.13-1.43,27.19-2.23,2.56-.23,5.15-.23,7.96-.81ZM243.07,268.89c.5-.02.74-.03.98-.05,9.38-.76,18.75-1.53,28.13-2.28,8.21-.66,16.41-1.3,24.62-1.95,1.29-.1,1.35-.15,1.25-1.46-.18-2.28-.42-4.56-.61-6.84-.5-6.1-.99-12.21-1.49-18.31-.12-1.47-.14-1.5-1.67-1.52-3.04-.05-6.08.2-9.05.76-13.31,2.53-24.67,8.68-33.89,18.63-3.47,3.74-6.27,7.94-8.24,13Z"/>
  <path class="cls-1" d="M391.11,338.2c-14.86-.06-26.86-12.2-26.77-27.09.09-14.77,12.17-26.72,26.99-26.69,14.81.03,26.91,12.26,26.8,27.09-.11,14.75-12.25,26.75-27.01,26.69ZM406.08,311.48c.2-6.95-5.35-14.41-14.39-14.39-9.45.02-14.59,7.85-14.44,14.56.18,8,6.49,14.34,14.51,14.31,7.98-.03,14.35-6.47,14.32-14.48Z"/>
  <path class="cls-1" d="M291.02,322.04c.03,14.81-12.11,26.94-26.97,26.92-14.73-.02-26.88-12.11-26.82-26.88.06-14.92,11.82-26.75,26.78-26.89,14.85-.14,26.97,11.98,27.01,26.85ZM250.14,322.3c.02,7.97,6.48,14.42,14.44,14.41,7.48,0,14.43-5.74,14.47-14.39.03-8.57-6.8-14.52-14.53-14.51-7.95.01-14.39,6.54-14.37,14.49Z"/>
</svg>